<?xml version="1.0" standalone="no"?><!DOCTYPE svg PUBLIC "-//W3C//DTD SVG 1.1//EN" "http://www.w3.org/Graphics/SVG/1.1/DTD/svg11.dtd"><svg t="1746759546964" class="icon" viewBox="0 0 1024 1024" version="1.1" xmlns="http://www.w3.org/2000/svg" p-id="5235" xmlns:xlink="http://www.w3.org/1999/xlink" width="200" height="200"><path d="M398.933333 185.6s-49.066667-8.533333-89.6-44.8c-21.333333-19.2-42.666667-46.933333-57.6-68.266667-10.666667-14.933333-34.133333-12.8-40.533333 4.266667-10.666667 29.866667-21.333333 72.533333-14.933333 119.466667 8.533333 66.133333 68.266667 113.066667 68.266666 113.066666l134.4-123.733333z" fill="#FFF48C" p-id="5236"></path><path d="M198.4 204.8c4.266667-19.2 8.533333-36.266667 14.933333-51.2 6.4-17.066667 29.866667-19.2 40.533334-4.266667 14.933333 21.333333 36.266667 49.066667 57.6 68.266667 10.666667 8.533333 21.333333 17.066667 32 21.333333l59.733333-53.333333s-49.066667-8.533333-89.6-44.8c-21.333333-19.2-42.666667-46.933333-57.6-68.266667-10.666667-14.933333-34.133333-12.8-40.533333 4.266667C200.533333 106.666667 189.866667 149.333333 196.266667 196.266667c0 2.133333 0 6.4 2.133333 8.533333z" fill="#FFFACF" p-id="5237"></path><path d="M625.066667 185.6s49.066667-8.533333 89.6-44.8c21.333333-19.2 42.666667-46.933333 57.6-68.266667 10.666667-14.933333 34.133333-12.8 40.533333 4.266667 10.666667 29.866667 21.333333 72.533333 14.933333 119.466667-8.533333 66.133333-68.266667 113.066667-68.266666 113.066666l-134.4-123.733333z" fill="#FFF48C" p-id="5238"></path><path d="M825.6 204.8c-4.266667-19.2-8.533333-36.266667-14.933333-51.2-6.4-17.066667-29.866667-19.2-40.533334-4.266667-14.933333 21.333333-36.266667 49.066667-57.6 68.266667-10.666667 8.533333-21.333333 17.066667-32 21.333333l-59.733333-53.333333s49.066667-8.533333 89.6-44.8c21.333333-19.2 42.666667-46.933333 57.6-68.266667 10.666667-14.933333 34.133333-12.8 40.533333 4.266667 10.666667 29.866667 21.333333 72.533333 14.933334 119.466667 4.266667 2.133333 4.266667 6.4 2.133333 8.533333z" fill="#FFFACF" p-id="5239"></path><path d="M273.066667 262.4s-149.333333 19.2-213.333334 192c-40.533333 108.8 213.333333 55.466667 213.333334 55.466667V262.4z" fill="#F0F0F0" p-id="5240"></path><path d="M57.6 454.4c-8.533333 23.466667-4.266667 40.533333 10.666667 51.2 68.266667-151.466667 204.8-168.533333 204.8-168.533333v-72.533334c0-2.133333-149.333333 19.2-215.466667 189.866667z" fill="#FFFFFF" p-id="5241"></path><path d="M750.933333 262.4s149.333333 19.2 213.333334 192c40.533333 108.8-213.333333 55.466667-213.333334 55.466667V262.4z" fill="#F0F0F0" p-id="5242"></path><path d="M966.4 454.4c8.533333 23.466667 4.266667 40.533333-10.666667 51.2-68.266667-151.466667-204.8-168.533333-204.8-168.533333v-72.533334c0-2.133333 149.333333 19.2 215.466667 189.866667z" fill="#FFFFFF" p-id="5243"></path><path d="M251.733333 968.533333a260.266667 34.133333 0 1 0 520.533334 0 260.266667 34.133333 0 1 0-520.533334 0Z" fill="#45413C" opacity=".15" p-id="5244"></path><path d="M793.6 693.333333H230.4V377.6c0-113.066667 91.733333-202.666667 202.666667-202.666667h155.733333c113.066667 0 202.666667 91.733333 202.666667 202.666667v315.733333z" fill="#F0F0F0" p-id="5245"></path><path d="M590.933333 172.8h-155.733333c-113.066667 0-202.666667 91.733333-202.666667 202.666667v81.066666c0-113.066667 91.733333-202.666667 202.666667-202.666666h155.733333c113.066667 0 202.666667 91.733333 202.666667 202.666666v-81.066666c0-110.933333-91.733333-202.666667-202.666667-202.666667z" fill="#FFFFFF" p-id="5246"></path><path d="M838.4 693.333333c0 117.333333-74.666667 213.333333-326.4 213.333334S185.6 810.666667 185.6 693.333333s40.533333-213.333333 326.4-213.333333 326.4 93.866667 326.4 213.333333z" fill="#FFCCDD" p-id="5247"></path><path d="M512 556.8c249.6 0 311.466667 72.533333 324.266667 168.533333 2.133333-10.666667 2.133333-23.466667 2.133333-34.133333 0-117.333333-40.533333-213.333333-326.4-213.333333s-326.4 96-326.4 213.333333c0 10.666667 0 23.466667 2.133333 34.133333 12.8-96 74.666667-168.533333 324.266667-168.533333z" fill="#FFE5EE" p-id="5248"></path><path d="M377.6 714.666667m-34.133333 0a34.133333 34.133333 0 1 0 68.266666 0 34.133333 34.133333 0 1 0-68.266666 0Z" fill="#FF87AF" p-id="5249"></path><path d="M646.4 714.666667m-34.133333 0a34.133333 34.133333 0 1 0 68.266666 0 34.133333 34.133333 0 1 0-68.266666 0Z" fill="#FF87AF" p-id="5250"></path><path d="M654.933333 396.8m-29.866666 0a29.866667 29.866667 0 1 0 59.733333 0 29.866667 29.866667 0 1 0-59.733333 0Z" fill="#45413C" p-id="5251"></path><path d="M369.066667 396.8m-29.866667 0a29.866667 29.866667 0 1 0 59.733333 0 29.866667 29.866667 0 1 0-59.733333 0Z" fill="#45413C" p-id="5252"></path><path d="M704 456.533333a34.133333 21.333333 0 1 0 68.266667 0 34.133333 21.333333 0 1 0-68.266667 0Z" fill="#FFCCDD" p-id="5253"></path><path d="M251.733333 456.533333a34.133333 21.333333 0 1 0 68.266667 0 34.133333 21.333333 0 1 0-68.266667 0Z" fill="#FFCCDD" p-id="5254"></path></svg>