<?xml version="1.0" standalone="no"?><!DOCTYPE svg PUBLIC "-//W3C//DTD SVG 1.1//EN" "http://www.w3.org/Graphics/SVG/1.1/DTD/svg11.dtd"><svg t="1747213534055" class="icon" viewBox="0 0 1024 1024" version="1.1" xmlns="http://www.w3.org/2000/svg" p-id="3696" xmlns:xlink="http://www.w3.org/1999/xlink" width="200" height="200"><path d="M921.386 312.546l94.114-15.685c-18.006 22.321-53.332 94.111-53.332 94.111-203.875-12.97-272.924-3.136-272.924-3.136-8.593 36.045 3.137 43.919 3.137 43.919 45.129 3.89 112.934-15.686 112.934-15.686-21.925 46.242-18.822 203.909-18.822 203.909 48.658 21.928 163.127-12.548 163.127-12.548-31.075 25.276-34.02 328.034-34.508 335.665s-3.137 9.412-3.137 9.412c-57.475 4.886-128.619-28.234-128.619-28.234 64.736-45.241 72.706-200.234 75.289-219.594s-15.685-15.686-15.685-15.686-291.422-2.14-307.432-3.136a53.838 53.838 0 0 0-28.234 6.274v-159.99h69.015c-17.971 36.354-15.685 84.7-15.685 84.7 19.576 13.317 175.676 6.274 175.676 6.274 0.843 0.769-6.274-138.031-6.274-138.031h-37.645c-7.784 11.749 9.842 88.736 12.548 103.523s-6.274 12.548-6.274 12.548L592 585.47c17.541-27.791 21.959-94.112 21.959-94.112s-67.734 5.833-94.111 6.275-21.96-12.549-21.96-12.549l-6.274-62.741c50.742 11.944 128.619 9.412 128.619 9.412v-50.193c-43.369-1.65-200.275 12.89-232.142 28.233s-37.645-6.274-37.645-6.274-18.325-68.412-28.233-87.838 0-15.685 0-15.685c49.434 21.617 122.345 28.234 122.345 28.234l175.675-6.274-6.274-94.112-134.898 12.548-18.823 43.919c-17.358 11.944-65.878-28.234-65.878-28.234 47.344-45.7 69.9-126.839 69.015-147.442s12.549-15.685 12.549-15.685l47.056 18.822c14.8 4.1 9.411 25.1 9.411 25.1l-12.548 25.1 87.837 3.132c7.093-17.676-12.548-69.015-12.548-69.015l94.112-3.137c-11.73 28.2-6.274 69.015-6.274 69.015 90.617 2.713 163.13-21.963 163.13-21.963l-31.374 87.84H686.107c-14.867 7.812-6.274 90.974-6.274 90.974 60.03 5.46 241.553-6.274 241.553-6.274z m-586.63 332.528s-13.8 179.475-37.645 244.691-50.193 50.194-50.193 50.194l-112.934-21.96 37.645-21.959s32.217-38.07 56.467-87.838c14.8-30.377 21.145-69.6 31.37-94.112 26.979-64.661 9.412-159.99 9.412-159.99-42.664 57.666-181.95 172.538-181.95 172.538L8.5 604.293l100.387 9.413C171 596.088 256.329 488.222 256.329 488.222c3.137-56.52-34.507-116.072-34.507-116.072-12.548 35.069-84.7 119.208-84.7 119.208L14.776 447.44c126.319-33.519 159.99-128.62 159.99-128.62-2.092-20.136-106.66-72.152-106.66-72.152l40.781-65.879c17.777 20.647 100.387 78.427 100.387 78.427 18.822-27.456 47.055-103.523 47.055-103.523l-25.1-84.7 112.938 69.013c-69.643 124.141-84.7 159.99-84.7 159.99 68.387 124.781 75.289 345.078 75.289 345.078z m483.107 87.838l-12.548 62.742S538.9 809.187 413.182 839.572c0 0-28-80.186-28.233-119.208 0 0 90.421 31.964 116.071 34.508s267.042 3.134 316.843-21.96z" p-id="3697"></path></svg>